<?xml version="1.0" standalone="no"?>
<!DOCTYPE svg PUBLIC "-//W3C//DTD SVG 20010904//EN"
 "http://www.w3.org/TR/2001/REC-SVG-20010904/DTD/svg10.dtd">
<svg version="1.0" xmlns="http://www.w3.org/2000/svg"
 width="700.000000pt" height="700.000000pt" viewBox="0 0 700.000000 700.000000"
 preserveAspectRatio="xMidYMid meet">
<metadata>
Created by potrace 1.11, written by Peter Selinger 2001-2013
</metadata>
<g transform="translate(0.000000,700.000000) scale(0.100000,-0.100000)"
fill="#000000" stroke="none">
<path d="M4943 6137 c-60 -22 -61 -29 -15 -119 71 -138 98 -169 195 -217 92
-46 112 -62 122 -102 11 -43 -18 -84 -77 -113 -47 -23 -210 -70 -277 -80 -151
-24 -164 -25 -321 -32 l-145 -6 -59 35 c-94 58 -146 72 -266 71 -84 -1 -122
-6 -192 -28 -49 -14 -104 -36 -124 -48 l-37 -22 -21 30 c-67 94 -196 203 -288
244 -128 57 -287 68 -426 31 -35 -10 -48 -8 -113 18 -242 96 -461 76 -645 -60
-64 -47 -153 -146 -201 -225 -43 -68 -45 -70 -98 -85 -119 -33 -243 -118 -297
-205 -72 -115 -72 -282 0 -445 l20 -47 -58 3 c-205 12 -385 -75 -494 -239 -39
-59 -94 -189 -103 -241 -6 -36 -7 -36 -74 -17 -95 25 -162 -26 -152 -116 3
-32 36 -136 57 -183 5 -12 -5 -24 -41 -48 -26 -17 -57 -37 -69 -46 -19 -14
-26 -13 -77 4 -153 53 -293 46 -383 -19 -33 -24 -52 -30 -86 -29 -152 6 -215
-59 -162 -166 l19 -40 -23 -47 c-59 -116 -25 -229 86 -283 31 -16 32 -18 32
-80 0 -36 0 -67 0 -70 2 -16 35 -83 48 -99 50 -55 152 -65 226 -22 94 55 128
107 160 243 20 84 43 135 84 182 l28 34 29 -39 c16 -21 53 -61 81 -89 48 -47
52 -54 57 -111 17 -172 139 -284 311 -284 l49 0 -41 -40 c-159 -156 -171 -345
-33 -504 47 -54 143 -134 200 -167 28 -16 45 -40 79 -108 39 -81 127 -191 152
-191 6 0 10 -4 10 -9 0 -4 -98 -41 -217 -81 -204 -68 -317 -114 -354 -143
-125 -98 28 -270 241 -269 216 0 449 142 633 385 47 62 61 73 147 115 52 25
98 48 102 49 3 2 3 -11 -2 -30 -11 -52 -4 -160 16 -219 9 -29 33 -77 52 -106
l35 -52 -24 -26 c-13 -14 -35 -32 -49 -39 -53 -28 -197 -69 -379 -110 -68 -16
-161 -49 -204 -73 -180 -102 -63 -296 178 -295 216 2 409 117 546 325 31 48
59 93 61 100 4 10 17 7 56 -11 l50 -24 1 -81 c0 -142 22 -204 104 -292 72 -79
208 -125 366 -126 66 0 113 -6 152 -18 178 -59 355 -50 487 27 92 53 191 177
236 294 13 34 26 50 51 62 119 57 246 260 280 449 l7 37 39 -19 c74 -38 133
-53 209 -52 158 2 310 81 468 242 66 67 71 70 113 69 137 -4 249 65 344 211
49 76 107 215 132 318 17 70 18 73 56 84 54 16 119 77 153 143 l29 57 42 -5
c105 -11 262 -124 430 -310 l43 -46 29 17 c48 27 67 83 50 146 -15 54 -101
177 -160 229 -96 85 -210 130 -352 140 -27 1 -27 2 -21 57 4 30 8 64 9 75 1
11 3 41 4 66 l1 46 43 -8 c106 -20 290 -110 500 -245 73 -47 82 -48 123 -2 66
72 45 202 -44 276 -86 72 -187 123 -286 144 -66 13 -174 18 -223 8 -21 -4 -54
-11 -75 -15 -41 -8 -42 -6 -53 108 -19 193 -72 341 -141 393 -51 39 -64 77
-68 201 -8 221 106 705 171 730 10 4 25 -6 41 -27 38 -49 156 -98 277 -116 17
-3 36 -7 43 -9 49 -17 301 -23 406 -11 84 10 98 13 165 30 151 40 260 116 308
214 80 164 -8 436 -209 640 -64 65 -200 162 -266 189 -20 8 -50 21 -67 29 -65
30 -215 68 -315 80 -24 3 -125 7 -224 9 -100 2 -194 6 -211 10 -16 3 -43 8
-60 11 -46 10 -116 48 -237 129 -204 138 -332 180 -435 142z m1142 -591 c32
-21 56 -74 48 -107 -10 -43 -52 -88 -90 -98 -67 -19 -79 -9 -109 85 -27 83
-27 84 -8 105 10 12 28 25 39 29 31 12 91 5 120 -14z m605 -283 c53 -36 113
-121 158 -224 2 -4 -4 -9 -13 -13 -23 -9 -79 17 -113 54 -32 33 -84 127 -95
173 -7 24 -4 27 16 27 12 0 34 -8 47 -17z"/>
</g>
</svg>
