<?xml version="1.0" standalone="no"?>
<!DOCTYPE svg PUBLIC "-//W3C//DTD SVG 20010904//EN"
 "http://www.w3.org/TR/2001/REC-SVG-20010904/DTD/svg10.dtd">
<svg version="1.0" xmlns="http://www.w3.org/2000/svg"
 width="700.000000pt" height="700.000000pt" viewBox="0 0 700.000000 700.000000"
 preserveAspectRatio="xMidYMid meet">
<metadata>
Created by potrace 1.11, written by Peter Selinger 2001-2013
</metadata>
<g transform="translate(0.000000,700.000000) scale(0.100000,-0.100000)"
fill="#000000" stroke="none">
<path d="M4943 6137 c-60 -22 -61 -29 -15 -119 65 -127 101 -170 168 -203 98
-49 134 -74 145 -102 20 -53 -8 -98 -81 -131 -43 -19 -228 -71 -274 -77 -12
-1 -39 -5 -61 -9 -77 -13 -111 -16 -255 -22 l-145 -6 -59 35 c-93 57 -146 71
-266 71 -113 -1 -208 -23 -304 -70 l-50 -25 -25 33 c-111 143 -244 237 -386
273 -87 21 -222 22 -302 1 l-61 -16 -74 29 c-153 61 -299 75 -431 42 -162 -42
-294 -143 -401 -306 -61 -93 -60 -93 -109 -106 -59 -15 -167 -70 -214 -108
-148 -119 -181 -325 -85 -542 l20 -46 -73 3 c-65 2 -92 -1 -185 -20 -14 -3
-56 -21 -95 -40 -84 -42 -162 -116 -216 -206 -37 -63 -89 -193 -89 -224 0 -22
-14 -27 -46 -16 -73 24 -131 15 -164 -25 -21 -25 -15 -103 14 -185 15 -41 28
-80 29 -86 1 -6 -28 -32 -65 -57 l-67 -46 -55 19 c-152 52 -292 45 -382 -20
-33 -24 -52 -30 -86 -29 -116 4 -191 -37 -183 -102 3 -19 12 -51 21 -72 17
-36 17 -39 -5 -77 -61 -108 -23 -233 85 -285 34 -16 34 -16 34 -86 0 -140 61
-213 177 -211 59 0 115 27 171 83 45 44 62 80 79 164 17 83 50 157 90 204 l29
34 34 -44 c18 -24 55 -64 80 -89 44 -42 48 -49 53 -106 17 -173 136 -282 310
-284 l49 0 -50 -51 c-28 -28 -65 -81 -83 -117 -30 -58 -34 -76 -34 -142 0 -65
4 -84 32 -140 43 -87 118 -165 237 -245 52 -35 65 -51 103 -126 40 -80 128
-189 152 -189 6 0 11 -4 11 -8 0 -5 -98 -41 -217 -82 -374 -125 -416 -154
-389 -267 10 -42 73 -97 144 -124 106 -40 264 -23 395 42 128 65 320 237 393
353 16 25 33 45 38 46 6 0 148 66 188 88 3 1 3 -13 -2 -32 -12 -52 -4 -164 15
-220 9 -27 33 -73 52 -103 l36 -53 -24 -26 c-42 -45 -121 -76 -323 -124 -320
-78 -396 -119 -396 -220 0 -98 116 -174 265 -173 155 2 294 58 414 169 66 61
161 186 181 238 5 14 12 26 15 26 2 0 27 -10 54 -21 l49 -22 0 -83 c0 -265
166 -414 464 -415 60 -1 114 -7 153 -19 198 -61 373 -48 506 36 90 56 180 171
223 286 12 30 26 50 40 54 36 11 125 93 165 153 56 82 108 209 127 306 l6 34
39 -19 c74 -38 133 -53 209 -52 158 2 308 80 470 244 64 66 67 68 115 67 56 0
63 1 120 21 156 52 293 256 355 527 11 50 14 53 53 65 52 15 135 96 161 156
16 35 24 42 47 42 97 0 285 -132 444 -310 22 -25 46 -43 55 -42 24 6 68 52 73
78 20 104 -120 302 -270 382 -69 36 -152 60 -224 63 l-51 3 7 60 c4 34 9 68
10 76 2 8 4 36 4 61 l1 46 38 -7 c109 -23 258 -94 453 -215 l123 -76 25 19
c59 43 76 113 52 202 -18 62 -92 130 -206 186 -135 67 -265 85 -403 58 -40 -8
-76 -13 -80 -10 -5 3 -9 25 -11 50 -1 24 -3 53 -5 63 -2 10 -7 43 -12 73 -4
30 -8 57 -9 60 -1 3 -5 19 -9 35 -31 120 -56 168 -115 225 -55 54 -68 95 -65
220 1 82 12 209 19 221 2 3 6 25 9 50 7 53 8 59 35 174 26 108 80 244 102 258
13 8 23 3 48 -26 105 -119 546 -179 837 -114 193 44 307 115 361 225 23 49 27
69 27 142 0 83 -22 176 -48 209 -6 8 -9 15 -7 15 9 2 -32 81 -77 148 -139 204
-375 352 -652 407 -92 19 -127 21 -325 26 -270 5 -305 15 -487 137 -225 151
-350 193 -455 155z m1122 -581 c98 -41 83 -186 -22 -215 -66 -19 -79 -9 -110
85 -27 83 -27 83 -7 105 34 38 85 47 139 25z m629 -296 c41 -26 73 -67 118
-154 30 -57 34 -72 23 -79 -19 -10 -82 17 -109 47 -38 43 -56 66 -56 74 0 4
-8 23 -18 42 -11 19 -22 47 -26 63 -5 23 -3 27 15 27 12 0 36 -9 53 -20z"/>
</g>
</svg>
