<?xml version="1.0" encoding="UTF-8" standalone="no"?>
<svg id="svg2" xmlns:rdf="http://www.w3.org/1999/02/22-rdf-syntax-ns#" xmlns="http://www.w3.org/2000/svg" height="26" width="26.646" version="1.1" xmlns:cc="http://creativecommons.org/ns#" xmlns:dc="http://purl.org/dc/elements/1.1/" viewBox="0 0 26.6455 26">
 <metadata id="metadata12">
  <rdf:RDF>
   <cc:Work rdf:about="">
    <dc:format>image/svg+xml</dc:format>
    <dc:type rdf:resource="http://purl.org/dc/dcmitype/StillImage"/>
    <dc:title>github-circle-white-transparent</dc:title>
   </cc:Work>
  </rdf:RDF>
 </metadata>
 <title id="title4">github-circle-white-transparent</title>
 <path id="path6" d="m13.323 0c-7.3584 0-13.323 5.9646-13.323 13.323 0 5.8887 3.8236 10.885 9.1128 12.657 0.66614 0.10658 0.8793-0.30642 0.8793-0.66614v-2.2515c-3.6904 0.799-4.4765-1.786-4.4765-1.786-0.6128-1.545-1.4788-1.958-1.4788-1.958-1.2124-0.82601 0.093259-0.79936 0.093259-0.79936 1.3323 0.09326 2.0384 1.3722 2.0384 1.3722 1.1591 2.0251 3.1175 1.4255 3.8769 1.1058 0.1199-0.86598 0.4663-1.4522 0.83933-1.7852-2.958-0.333-6.0622-1.478-6.0622-6.554 0-1.479 0.5063-2.6649 1.3723-3.6109-0.1332-0.333-0.5995-1.7186 0.1332-3.5172 0 0 1.1191-0.35971 3.6638 1.3589 1.0525-0.2931 2.1983-0.43965 3.3307-0.43965s2.2782 0.14655 3.3307 0.43965c2.5446-1.7186 3.6638-1.3589 3.6638-1.3589 0.73275 1.7986 0.26646 3.1841 0.13323 3.5172 0.86598 0.94592 1.3722 2.1316 1.3722 3.6105 0 5.0893-3.1175 6.2084-6.0885 6.5415 0.47962 0.413 0.91927 1.2257 0.91927 2.4647v3.6504c0 0.35972 0.21316 0.78604 0.89262 0.66614 5.2891-1.7852 9.0994-6.768 9.0994-12.657a13.323 13.323 0 0 0 -13.322 -13.322z" fill-opacity=".85490" fill-rule="evenodd" fill="#000"/>
</svg>
