<?xml version="1.0" encoding="UTF-8" standalone="no"?>
<svg id="svg2" xmlns:rdf="http://www.w3.org/1999/02/22-rdf-syntax-ns#" xmlns="http://www.w3.org/2000/svg" version="1.1" xml:space="preserve" height="48" width="48" enable-background="new 0 0 1000 1000" xmlns:cc="http://creativecommons.org/ns#" xmlns:dc="http://purl.org/dc/elements/1.1/" viewBox="0 0 47.999998 48.000001"><g id="layer1" transform="translate(-112.1 -281.07)"><path id="path28" fill="#fff" d="m154.11 289.06c-1.3678-0.17883-3.0839 0.20754-4.3543-0.56016-0.6788-0.40893-2.7578-2.2958-4.1013-1.3472-0.16893 0.1164 0.80354 1.6683 0.91451 1.7739 0.33283 0.31668 1.2941 0.51686 1.4685 0.9234 0.29875 0.74707-0.64374 0.9984-1.1031 1.1518-1.4309 0.43905-3.0256 0.59829-4.5544 0.55419-2.0392-1.6413-4.5996-0.0612-4.5996-0.0612-2.2777-3.2676-5.2712-1.9829-5.2712-1.9829-4.6615-2.2446-6.5867 2.1923-6.5867 2.1923-4.5172 1.1509-2.3131 4.9097-2.3131 4.9097-4.0269-0.46002-4.5476 3.5273-4.5476 3.5273-2.6039-0.91752-1.0551 2.0284-1.0551 2.0284-0.39066 0.21146-0.69948 0.40965-0.92908 0.63947-0.9164-0.3507-2.4428-0.74597-3.3004 0.21292 0 0-2.403-0.34729-1.2983 1.4107 0 0-1.2111 1.6139 0.67188 2.3813 0 0-0.42138 2.1284 1.4559 1.9136 0 0 1.4414-0.46545 1.4434-1.7355 0 0 0.23175-1.1936 0.83091-1.5821 0.45453 0.70214 1.1017 1.1903 1.1017 1.1903-0.0305 2.6827 2.4911 2.3883 2.4911 2.3883-3.2172 2.8031 1.1221 5.0109 1.1221 5.0109 0.38076 1.0401 0.89334 1.6736 1.4506 2.0033-1.6394 0.61605-4.1211 1.156-4.2528 1.869-0.21065 1.1408 1.482 1.4647 1.482 1.4647 2.6723 0.36301 4.7092-2.4369 5.1921-3.1474 0.78935-0.25125 1.3542-0.66871 1.3542-0.66871-0.30036 1.2887 0.10665 2.1862 0.63777 2.8117-0.2793 1.0827-4.5225 1.0875-4.9919 2.1862-0.53805 1.1937 1.2418 1.5678 1.2418 1.5678 2.8571 0.28371 4.2658-2.0934 4.6878-2.9966 0.4094 0.24007 0.7184 0.34818 0.7184 0.34818-0.50228 3.9794 3.8198 3.3936 3.8198 3.3936 4.4315 1.7087 5.4882-2.3554 5.4882-2.3554 1.8663-0.80101 2.2109-3.4654 2.2109-3.4654 2.8156 1.7676 5.3486-1.661 5.3486-1.661 2.9918 0.4447 3.7077-4.1078 3.7077-4.1078 0.73662-0.1191 1.2195-0.67656 1.5439-1.4504 1.4812-0.0668 3.4866 2.4644 3.4866 2.4644 1.1748-0.3729 0.32129-1.6478 0.32129-1.6478-1.0835-1.8108-2.6652-2.0291-3.46-1.9944 0.10275-0.52551 0.1446-1.0906 0.1602-1.6662 1.2595 0.0284 4.1782 2.0362 4.1782 2.0362 1.2433-0.62115 0.32373-1.999 0.32373-1.999-1.7963-1.6361-3.6418-1.3474-4.5236-1.0565-0.1116-1.7901-0.5694-3.3662-1.1082-3.5508-1.2095-0.42184 0.45027-7.5676 0.98431-6.2213 0.53408 1.3463 10.019 2.2867 8.2869-2.7688-0.94401-2.6584-3.2894-3.9932-5.7742-4.3273zm-1.1416 3.3566c-0.11385-0.36696-0.25386-0.74445-0.36758-1.1114 0.26106-0.61536 1.3014-0.5367 1.5341 0.1074 0.21421 0.65208-0.58286 1.3443-1.1666 1.004zm6.1058 2.1937c-1.093 0.20652-1.6089-1.7603-1.6089-1.7603 0.94519-0.1431 1.6089 1.7603 1.6089 1.7603z"/></g></svg>
